<?xml version="1.0" encoding="utf-8"?>
<!-- Generator: Adobe Illustrator 23.0.5, SVG Export Plug-In . SVG Version: 6.00 Build 0)  -->
<svg version="1.1" id="Layer_1" xmlns="http://www.w3.org/2000/svg" xmlns:xlink="http://www.w3.org/1999/xlink" x="0px" y="0px"
	 viewBox="0 0 101.6 46.3" style="enable-background:new 0 0 101.6 46.3;" xml:space="preserve">
<style type="text/css">
	.st0{display:none;clip-path:url(#SVGID_2_);fill:none;stroke:#000000;stroke-width:0.25;stroke-miterlimit:10;}
	.st1{clip-path:url(#SVGID_2_);}
	.st2{clip-path:url(#SVGID_4_);fill:#EB137D;}
	.st3{clip-path:url(#SVGID_4_);fill:none;stroke:#000000;stroke-width:0.25;stroke-miterlimit:10;}
	.st4{opacity:0.98;clip-path:url(#SVGID_4_);}
	.st5{clip-path:url(#SVGID_6_);fill:#FFE000;}
	.st6{clip-path:url(#SVGID_8_);fill:#F0E535;}
	.st7{clip-path:url(#SVGID_8_);fill:none;stroke:#000000;stroke-width:0.25;stroke-miterlimit:10;}
	.st8{clip-path:url(#SVGID_4_);fill:#EE0B7D;}
	.st9{clip-path:url(#SVGID_10_);fill:#FFE000;}
	.st10{clip-path:url(#SVGID_12_);}
	.st11{clip-path:url(#SVGID_14_);fill:url(#SVGID_15_);}
	.st12{opacity:0.6;clip-path:url(#SVGID_4_);}
	.st13{opacity:0.8;clip-path:url(#SVGID_4_);}
	.st14{clip-path:url(#SVGID_19_);}
	.st15{clip-path:url(#SVGID_21_);fill:url(#SVGID_22_);}
	.st16{clip-path:url(#SVGID_24_);}
	.st17{clip-path:url(#SVGID_26_);fill:url(#SVGID_27_);}
	.st18{display:none;clip-path:url(#SVGID_2_);}
	.st19{display:inline;}
	.st20{display:inline;clip-path:url(#SVGID_29_);fill:#EB137D;}
	.st21{display:inline;clip-path:url(#SVGID_29_);fill:none;stroke:#000000;stroke-width:0.25;stroke-miterlimit:10;}
	.st22{display:inline;opacity:0.98;clip-path:url(#SVGID_29_);}
	.st23{clip-path:url(#SVGID_31_);fill:#FFE000;}
	.st24{clip-path:url(#SVGID_33_);fill:#F0E535;}
	.st25{clip-path:url(#SVGID_33_);fill:none;stroke:#000000;stroke-width:0.25;stroke-miterlimit:10;}
	.st26{display:inline;clip-path:url(#SVGID_29_);fill:#EE0B7D;}
	.st27{clip-path:url(#SVGID_35_);fill:#FFE000;}
	.st28{clip-path:url(#SVGID_37_);}
	.st29{clip-path:url(#SVGID_39_);fill:url(#SVGID_40_);}
	.st30{display:inline;opacity:0.6;clip-path:url(#SVGID_29_);}
	.st31{display:inline;opacity:0.8;clip-path:url(#SVGID_29_);}
	.st32{clip-path:url(#SVGID_44_);}
	.st33{clip-path:url(#SVGID_46_);fill:url(#SVGID_47_);}
	.st34{clip-path:url(#SVGID_49_);}
	.st35{clip-path:url(#SVGID_51_);fill:url(#SVGID_52_);}
</style>
<g>
	<defs>
		<rect id="SVGID_1_" x="-923.7" y="-511.3" width="1920" height="1080"/>
	</defs>
	<clipPath id="SVGID_2_">
		<use xlink:href="#SVGID_1_"  style="overflow:visible;"/>
	</clipPath>
	<rect x="-369.2" y="-350.8" class="st0" width="795.6" height="795.6"/>
	<g class="st1">
		<defs>
			<rect id="SVGID_3_" x="-101.5" y="-76.2" width="304.6" height="198.7"/>
		</defs>
		<clipPath id="SVGID_4_">
			<use xlink:href="#SVGID_3_"  style="overflow:visible;"/>
		</clipPath>
		<path class="st2" d="M64.9,45l-0.3-10.9l12.1,0.5v-3.1L66.5,24c-0.9-0.6-1.4-1.7-1.4-2.9V6.7c0-0.9,0.6-1.6,1.3-1.6h21.9
			l-1.6,10.3H75.6L87,25.3c0.9,0.8,1.3,2,1.2,3.2l-1,12.1c0,0.5-0.2,0.9-0.4,1.2l-1.1,1.7c-0.4,0.6-1,0.9-1.6,0.9L64.9,45z"/>
		<path class="st3" d="M64.9,45l-0.3-10.9l12.1,0.5v-3.1L66.5,24c-0.9-0.6-1.4-1.7-1.4-2.9V6.7c0-0.9,0.6-1.6,1.3-1.6h21.9
			l-1.6,10.3H75.6L87,25.3c0.9,0.8,1.3,2,1.2,3.2l-1,12.1c0,0.5-0.2,0.9-0.4,1.2l-1.1,1.7c-0.4,0.6-1,0.9-1.6,0.9L64.9,45z"/>
		<g class="st4">
			<g>
				<defs>
					<rect id="SVGID_5_" x="81.2" y="5.1" width="7" height="10.4"/>
				</defs>
				<clipPath id="SVGID_6_">
					<use xlink:href="#SVGID_5_"  style="overflow:visible;"/>
				</clipPath>
				<path class="st5" d="M88.2,5.1l-2.2,0c-0.4-0.2-2.7,5.3-4.8,10.4c1.8-0.1,3.1-0.1,5.7-0.2"/>
			</g>
		</g>
		<g class="st4">
			<g>
				<defs>
					<rect id="SVGID_7_" x="9.3" y="4.3" width="28" height="40.7"/>
				</defs>
				<clipPath id="SVGID_8_">
					<use xlink:href="#SVGID_7_"  style="overflow:visible;"/>
				</clipPath>
				<path class="st6" d="M14.5,44.9L9.3,4.3L21.6,5l1.6,28.7c0,0,0,0,0,0L24.9,5l12.3,0.1l-4.6,39.3L14.5,44.9z"/>
				<path class="st7" d="M14.5,44.9L9.3,4.3L21.6,5l1.6,28.7c0,0,0,0,0,0L24.9,5l12.3,0.1l-4.6,39.3L14.5,44.9z"/>
			</g>
		</g>
		<path class="st8" d="M60.1,5.1L39.7,5.2c-0.8,8.2-1.6,16.4-2.4,24.6c-0.5,4.9-0.9,9.8-1.4,14.7c3.9,0,11.6,0,11.4,0l0.1-7.5
			l3.9-0.1l0.7,7.6l11.2-0.2L60.1,5.1z M48.4,26.8l0.5-12.2h1.5l0.4,12L48.4,26.8z"/>
		<path class="st3" d="M60.1,5.1L39.7,5.2c-0.8,8.2-1.6,16.4-2.4,24.6c-0.5,4.9-0.9,9.8-1.4,14.7c3.9,0,11.6,0,11.4,0l0.1-7.5
			l3.9-0.1l0.7,7.6l11.2-0.2L60.1,5.1z M48.4,26.8l0.5-12.2h1.5l0.4,12L48.4,26.8z"/>
		<polygon class="st8" points="32.6,44.5 17,44.8 12.1,4.3 22,4.9 23.2,33.2 23.2,32.9 24.9,5 37.4,5.2 		"/>
		<polygon class="st3" points="32.6,44.5 17,44.8 12.1,4.3 22,4.9 23.2,33.2 23.2,32.9 24.9,5 37.4,5.2 		"/>
		<g class="st4">
			<g>
				<defs>
					<rect id="SVGID_9_" x="82.4" y="21.3" width="5.8" height="23.2"/>
				</defs>
				<clipPath id="SVGID_10_">
					<use xlink:href="#SVGID_9_"  style="overflow:visible;"/>
				</clipPath>
				<polygon class="st9" points="82.4,21.3 88.2,26.1 88.2,29.3 87.4,41.2 85.8,44.5 82.5,44.5 				"/>
			</g>
		</g>
		<g class="st4">
			<g>
				<defs>
					<rect id="SVGID_11_" x="36.1" y="32.2" width="11.2" height="12.1"/>
				</defs>
				<clipPath id="SVGID_12_">
					<use xlink:href="#SVGID_11_"  style="overflow:visible;"/>
				</clipPath>
				<g class="st10">
					<defs>
						<path id="SVGID_13_" d="M36.1,44.2C36.2,44.2,36.1,44.3,36.1,44.2c0.8-0.1,3.9,0,6.8,0c1.9,0,4,0.2,4.1-0.2
							c0.3-1,0.1-3.7,0.1-4.3c0-2.5-6.2-7.9-9.3-7.5c-0.9,0.1-0.6,1.3-0.8,2.5c-0.3,2.4-0.5,5.7-0.8,8.2"/>
					</defs>
					<clipPath id="SVGID_14_">
						<use xlink:href="#SVGID_13_"  style="overflow:visible;"/>
					</clipPath>
					
						<linearGradient id="SVGID_15_" gradientUnits="userSpaceOnUse" x1="-902.965" y1="565.5029" x2="-902.8064" y2="565.5029" gradientTransform="matrix(70.3761 0 0 -70.3761 63578.5781 39836.0898)">
						<stop  offset="0" style="stop-color:#FF2189"/>
						<stop  offset="1" style="stop-color:#E7654D"/>
					</linearGradient>
					<rect x="36.1" y="31.9" class="st11" width="11.3" height="12.7"/>
				</g>
			</g>
		</g>
		<g class="st12">
			<g>
				<defs>
					<path id="SVGID_16_" d="M36.2,43.8L36.2,43.8z"/>
				</defs>
				<clipPath id="SVGID_17_">
					<use xlink:href="#SVGID_16_"  style="overflow:visible;"/>
				</clipPath>
			</g>
		</g>
		<g class="st13">
			<g>
				<defs>
					<rect id="SVGID_18_" x="51.7" y="37.3" width="11.3" height="7"/>
				</defs>
				<clipPath id="SVGID_19_">
					<use xlink:href="#SVGID_18_"  style="overflow:visible;"/>
				</clipPath>
				<g class="st14">
					<defs>
						<path id="SVGID_20_" d="M62.6,39.3c-0.9-3-8.4-1.8-10.9-1.2l0.5,6.2c1.8-0.1,6.7,0.1,10.8-0.2c0,0,0,0,0-0.1
							C63,43.4,62.8,39.9,62.6,39.3"/>
					</defs>
					<clipPath id="SVGID_21_">
						<use xlink:href="#SVGID_20_"  style="overflow:visible;"/>
					</clipPath>
					
						<linearGradient id="SVGID_22_" gradientUnits="userSpaceOnUse" x1="-904.3082" y1="565.6469" x2="-904.1495" y2="565.6469" gradientTransform="matrix(71.5479 0 0 -71.5479 64750.5352 40511.1445)">
						<stop  offset="0" style="stop-color:#FF2189"/>
						<stop  offset="1" style="stop-color:#E7654D"/>
					</linearGradient>
					<rect x="51.7" y="36.3" class="st15" width="11.3" height="8.1"/>
				</g>
			</g>
		</g>
		<g class="st4">
			<g>
				<defs>
					<rect id="SVGID_23_" x="23.4" y="5.3" width="9.4" height="28"/>
				</defs>
				<clipPath id="SVGID_24_">
					<use xlink:href="#SVGID_23_"  style="overflow:visible;"/>
				</clipPath>
				<g class="st16">
					<defs>
						<path id="SVGID_25_" d="M25.2,5.3l-1.7,28l7.2-10.4c0.4-0.3,0.8-1.3,0.9-2.3l1.3-15.3"/>
					</defs>
					<clipPath id="SVGID_26_">
						<use xlink:href="#SVGID_25_"  style="overflow:visible;"/>
					</clipPath>
					
						<linearGradient id="SVGID_27_" gradientUnits="userSpaceOnUse" x1="-901.9944" y1="564.2629" x2="-901.8358" y2="564.2629" gradientTransform="matrix(59.3547 0 0 -59.3547 53561.0313 33510.957)">
						<stop  offset="0" style="stop-color:#FF2189"/>
						<stop  offset="1" style="stop-color:#E7654D"/>
					</linearGradient>
					<rect x="23.4" y="5.3" class="st17" width="9.4" height="28"/>
				</g>
			</g>
		</g>
	</g>
	<g class="st18">
		<defs>
			<rect id="SVGID_28_" x="34.7" y="36" width="57.4" height="33.9"/>
		</defs>
		<clipPath id="SVGID_29_" class="st19">
			<use xlink:href="#SVGID_28_"  style="overflow:visible;"/>
		</clipPath>
		<path class="st20" d="M66,56.6l-0.1-1.9l2.3,0.1v-0.5l-1.9-1.3C66.1,53,66,52.8,66,52.6v-2.5c0-0.1,0.1-0.3,0.3-0.3h4.1l-0.3,1.8
			H68l2.1,1.7c0.2,0.1,0.3,0.3,0.2,0.6l-0.2,2.1c0,0.1,0,0.2-0.1,0.2l-0.2,0.3c-0.1,0.1-0.2,0.2-0.3,0.2L66,56.6z"/>
		<path class="st21" d="M66,56.6l-0.1-1.9l2.3,0.1v-0.5l-1.9-1.3C66.1,53,66,52.8,66,52.6v-2.5c0-0.1,0.1-0.3,0.3-0.3h4.1l-0.3,1.8
			H68l2.1,1.7c0.2,0.1,0.3,0.3,0.2,0.6l-0.2,2.1c0,0.1,0,0.2-0.1,0.2l-0.2,0.3c-0.1,0.1-0.2,0.2-0.3,0.2L66,56.6z"/>
		<g class="st22">
			<g>
				<defs>
					<rect id="SVGID_30_" x="69.1" y="49.8" width="1.3" height="1.8"/>
				</defs>
				<clipPath id="SVGID_31_">
					<use xlink:href="#SVGID_30_"  style="overflow:visible;"/>
				</clipPath>
				<path class="st23" d="M70.4,49.8l-0.4,0c-0.1,0-0.5,0.9-0.9,1.8c0.3,0,0.6,0,1.1,0"/>
			</g>
		</g>
		<g class="st22">
			<g>
				<defs>
					<rect id="SVGID_32_" x="55.5" y="49.7" width="5.3" height="6.9"/>
				</defs>
				<clipPath id="SVGID_33_">
					<use xlink:href="#SVGID_32_"  style="overflow:visible;"/>
				</clipPath>
				<path class="st24" d="M56.5,56.6l-1-6.9l2.3,0.1l0.3,4.9c0,0,0,0,0,0l0.3-4.9l2.3,0l-0.9,6.7L56.5,56.6z"/>
				<path class="st25" d="M56.5,56.6l-1-6.9l2.3,0.1l0.3,4.9c0,0,0,0,0,0l0.3-4.9l2.3,0l-0.9,6.7L56.5,56.6z"/>
			</g>
		</g>
		<path class="st26" d="M65.1,49.8l-3.8,0c-0.1,1.4-0.3,2.8-0.4,4.2c-0.1,0.8-0.2,1.7-0.3,2.5c0.7,0,2.2,0,2.2,0l0-1.3l0.7,0
			l0.1,1.3l2.1,0L65.1,49.8z M62.9,53.5l0.1-2.1h0.3l0.1,2L62.9,53.5z"/>
		<path class="st21" d="M65.1,49.8l-3.8,0c-0.1,1.4-0.3,2.8-0.4,4.2c-0.1,0.8-0.2,1.7-0.3,2.5c0.7,0,2.2,0,2.2,0l0-1.3l0.7,0
			l0.1,1.3l2.1,0L65.1,49.8z M62.9,53.5l0.1-2.1h0.3l0.1,2L62.9,53.5z"/>
		<polygon class="st26" points="59.9,56.5 57,56.6 56.1,49.7 57.9,49.8 58.1,54.6 58.1,54.6 58.5,49.8 60.8,49.8 		"/>
		<polygon class="st21" points="59.9,56.5 57,56.6 56.1,49.7 57.9,49.8 58.1,54.6 58.1,54.6 58.5,49.8 60.8,49.8 		"/>
		<g class="st22">
			<g>
				<defs>
					<rect id="SVGID_34_" x="69.3" y="52.6" width="1.1" height="4"/>
				</defs>
				<clipPath id="SVGID_35_">
					<use xlink:href="#SVGID_34_"  style="overflow:visible;"/>
				</clipPath>
				<polygon class="st27" points="69.3,52.6 70.4,53.4 70.4,54 70.2,56 69.9,56.6 69.3,56.6 				"/>
			</g>
		</g>
		<g class="st22">
			<g>
				<defs>
					<rect id="SVGID_36_" x="60.6" y="54.5" width="2.1" height="2.1"/>
				</defs>
				<clipPath id="SVGID_37_">
					<use xlink:href="#SVGID_36_"  style="overflow:visible;"/>
				</clipPath>
				<g class="st28">
					<defs>
						<path id="SVGID_38_" d="M60.6,56.5C60.6,56.5,60.6,56.5,60.6,56.5c0.1,0,0.7,0,1.3,0c0.4,0,0.8,0,0.8,0c0.1-0.2,0-0.6,0-0.7
							c0-0.4-1.2-1.4-1.8-1.3c-0.2,0-0.1,0.2-0.2,0.4c-0.1,0.4-0.1,1-0.2,1.4"/>
					</defs>
					<clipPath id="SVGID_39_">
						<use xlink:href="#SVGID_38_"  style="overflow:visible;"/>
					</clipPath>
					
						<linearGradient id="SVGID_40_" gradientUnits="userSpaceOnUse" x1="-902.5633" y1="565.2574" x2="-902.5334" y2="565.2574" gradientTransform="matrix(70.3761 0 0 -70.3761 63578.5781 39836.0898)">
						<stop  offset="0" style="stop-color:#FF2189"/>
						<stop  offset="1" style="stop-color:#E7654D"/>
					</linearGradient>
					<rect x="60.6" y="54.4" class="st29" width="2.1" height="2.2"/>
				</g>
			</g>
		</g>
		<g class="st30">
			<g>
				<defs>
					<path id="SVGID_41_" d="M60.6,56.4L60.6,56.4z"/>
				</defs>
				<clipPath id="SVGID_42_">
					<use xlink:href="#SVGID_41_"  style="overflow:visible;"/>
				</clipPath>
			</g>
		</g>
		<g class="st31">
			<g>
				<defs>
					<rect id="SVGID_43_" x="63.5" y="55.3" width="2.1" height="1.2"/>
				</defs>
				<clipPath id="SVGID_44_">
					<use xlink:href="#SVGID_43_"  style="overflow:visible;"/>
				</clipPath>
				<g class="st32">
					<defs>
						<path id="SVGID_45_" d="M65.6,55.7c-0.2-0.5-1.6-0.3-2.1-0.2l0.1,1.1c0.3,0,1.3,0,2,0c0,0,0,0,0,0
							C65.6,56.4,65.6,55.8,65.6,55.7"/>
					</defs>
					<clipPath id="SVGID_46_">
						<use xlink:href="#SVGID_45_"  style="overflow:visible;"/>
					</clipPath>
					
						<linearGradient id="SVGID_47_" gradientUnits="userSpaceOnUse" x1="-904.1151" y1="565.4301" x2="-904.0852" y2="565.4301" gradientTransform="matrix(71.5479 0 0 -71.5479 64750.5352 40511.1445)">
						<stop  offset="0" style="stop-color:#FF2189"/>
						<stop  offset="1" style="stop-color:#E7654D"/>
					</linearGradient>
					<rect x="63.5" y="55.1" class="st33" width="2.1" height="1.4"/>
				</g>
			</g>
		</g>
		<g class="st22">
			<g>
				<defs>
					<rect id="SVGID_48_" x="58.2" y="49.9" width="1.8" height="4.8"/>
				</defs>
				<clipPath id="SVGID_49_">
					<use xlink:href="#SVGID_48_"  style="overflow:visible;"/>
				</clipPath>
				<g class="st34">
					<defs>
						<path id="SVGID_50_" d="M58.5,49.9l-0.3,4.8l1.4-1.8c0.1-0.1,0.2-0.2,0.2-0.4l0.2-2.6"/>
					</defs>
					<clipPath id="SVGID_51_">
						<use xlink:href="#SVGID_50_"  style="overflow:visible;"/>
					</clipPath>
					
						<linearGradient id="SVGID_52_" gradientUnits="userSpaceOnUse" x1="-901.4091" y1="563.7079" x2="-901.3793" y2="563.7079" gradientTransform="matrix(59.3547 0 0 -59.3547 53561.0313 33510.957)">
						<stop  offset="0" style="stop-color:#FF2189"/>
						<stop  offset="1" style="stop-color:#E7654D"/>
					</linearGradient>
					<rect x="58.2" y="49.9" class="st35" width="1.8" height="4.8"/>
				</g>
			</g>
		</g>
	</g>
</g>
</svg>
